# xmcd
#
# Track frame offsets: 
#        150
#        15373
#        27632
#        44675
#        57035
#        77261
#        88159
#        107370
#        119895
#        122766
#        139723
#        157333
#        170833
#
# Disc length: 2470 seconds
#
# Revision: 0
# Processed by: cddbd v1.5.1PL0 Copyright (c) Steve Scherf et al.
# Submitted via: ExactAudioCopy v0.95a5
#
DISCID=b009a40d
DTITLE=New West - Buckaroo Dream
DYEAR=2001
DGENRE=Western
TTITLE0=Buckaroo Dream
TTITLE1=Cowboy Swing
TTITLE2=Line Riders Waltz
TTITLE3=The Remember Song
TTITLE4=The Vaquero Song
TTITLE5=Vaquero
TTITLE6=Jaquima To Freno
TTITLE7=Headin' South For A Change
TTITLE8=The Drovers Prayer
TTITLE9=The Wire And The Rail
TTITLE10=The Bells Of A Gran Boquilla
TTITLE11=Chow's On
TTITLE12=Roads To Colorado
EXTD=
EXTT0=
EXTT1=
EXTT2=
EXTT3=
EXTT4=
EXTT5=
EXTT6=
EXTT7=
EXTT8=
EXTT9=
EXTT10=
EXTT11=
EXTT12=
PLAYORDER=
